<svg width="300" height="400" viewBox="0 0 300 400" fill="none" xmlns="http://www.w3.org/2000/svg">
  <rect width="300" height="400" fill="#f8fafc"/>
  <rect x="20" y="20" width="260" height="360" rx="8" fill="#e2e8f0" stroke="#cbd5e1" stroke-width="2"/>
  <rect x="40" y="60" width="220" height="8" rx="4" fill="#94a3b8"/>
  <rect x="40" y="80" width="180" height="6" rx="3" fill="#cbd5e1"/>
  <rect x="40" y="100" width="200" height="6" rx="3" fill="#cbd5e1"/>
  <rect x="40" y="120" width="160" height="6" rx="3" fill="#cbd5e1"/>
  <rect x="40" y="160" width="220" height="8" rx="4" fill="#94a3b8"/>
  <rect x="40" y="180" width="180" height="6" rx="3" fill="#cbd5e1"/>
  <rect x="40" y="200" width="200" height="6" rx="3" fill="#cbd5e1"/>
  <rect x="40" y="220" width="160" height="6" rx="3" fill="#cbd5e1"/>
  <rect x="40" y="260" width="220" height="8" rx="4" fill="#94a3b8"/>
  <rect x="40" y="280" width="180" height="6" rx="3" fill="#cbd5e1"/>
  <rect x="40" y="300" width="200" height="6" rx="3" fill="#cbd5e1"/>
  <rect x="40" y="320" width="160" height="6" rx="3" fill="#cbd5e1"/>
  <circle cx="150" cy="350" r="20" fill="#3b82f6"/>
  <path d="M140 350 L148 358 L160 342" stroke="white" stroke-width="3" stroke-linecap="round" stroke-linejoin="round"/>
</svg> 