<svg xmlns="http://www.w3.org/2000/svg" xmlns:xlink="http://www.w3.org/1999/xlink" width="49" height="47" viewBox="0 0 49 47" fill="none">
<g  clip-path="url(#clip-path-11_79)">
<path d="M48.9001 0.805149C48.833 0.642602 48.7349 0.495363 48.6107 0.371089C48.4865 0.247265 48.3394 0.149106 48.1769 0.0820156C48.0145 0.0153756 47.8408 -0.0188449 47.6653 -0.0179443L5.3347 -0.0179443C5.1592 -0.0188449 4.9855 0.0153756 4.82305 0.0820156C4.6606 0.149106 4.51345 0.247265 4.38925 0.371089C4.26505 0.495363 4.16695 0.642602 4.0999 0.805149C4.0333 0.967246 3.9991 1.14105 4 1.31666L4 43.6745C3.9991 43.8496 4.0333 44.0239 4.0999 44.186C4.16695 44.3485 4.26505 44.4957 4.38925 44.62C4.51345 44.7438 4.6606 44.842 4.82305 44.9091C4.9855 44.9757 5.1592 45.01 5.3347 45.0091L36.8675 45.0091L49 32.8779L49 1.31666C49.0009 1.14105 48.9667 0.967246 48.9001 0.805149Z"   fill="#FF0065" >
</path>
<g opacity="0.3">
</g>
<path d="M38.2026 32.85C38.0274 32.8494 37.8537 32.8833 37.6916 32.9501C37.5295 33.0167 37.3823 33.1148 37.2581 33.2387C37.1342 33.3624 37.0358 33.5096 36.9688 33.6716C36.9018 33.8336 36.8676 34.0072 36.868 34.1826L36.868 44.982L49 32.85L38.2026 32.85Z"   fill="#FF5BA0" >
</path>
</g>
<g  clip-path="url(#clip-path-11_84)">
<path d="M44.9001 2.80515C44.833 2.6426 44.7349 2.49536 44.6107 2.37109C44.4865 2.24726 44.3394 2.14911 44.1769 2.08202C44.0145 2.01538 43.8408 1.98116 43.6653 1.98206L1.3347 1.98206C1.1592 1.98116 0.9855 2.01538 0.82305 2.08202C0.6606 2.14911 0.51345 2.24726 0.38925 2.37109C0.26505 2.49536 0.16695 2.6426 0.0999 2.80515C0.0333 2.96725 -0.0009 3.14105 0 3.31666L0 45.6745C-0.0009 45.8496 0.0333 46.0239 0.0999 46.186C0.16695 46.3485 0.26505 46.4957 0.38925 46.62C0.51345 46.7438 0.6606 46.842 0.82305 46.9091C0.9855 46.9757 1.1592 47.01 1.3347 47.0091L32.8675 47.0091L45 34.8779L45 3.31666C45.0009 3.14105 44.9667 2.96725 44.9001 2.80515Z"   fill="#4F26AD" >
</path>
<g opacity="0.3">
</g>
<path d="M34.2026 34.85C34.0274 34.8494 33.8537 34.8833 33.6916 34.9501C33.5295 35.0167 33.3823 35.1148 33.2581 35.2387C33.1342 35.3624 33.0358 35.5096 32.9688 35.6716C32.9018 35.8336 32.8676 36.0072 32.868 36.1826L32.868 46.982L45 34.85L34.2026 34.85Z"   fill="#A78BE8" >
</path>
</g>
<path    style="mix-blend-mode:normal" fill="#FFFFFF"  d="M31.4 31.1397C31.4 31.5265 31.0865 31.84 30.6997 31.84L8.06029 31.84C7.67353 31.84 7.36 31.5265 7.36 31.1397L7.36 18.7003C7.36 18.3135 7.67353 18 8.06029 18L28.5 18L28.5 16.2003C28.5 15.8135 28.1865 15.5 27.7997 15.5L6.70029 15.5C6.31353 15.5 6 15.8135 6 16.2003L6 26.93L6 34.2997C6 34.6865 6.31353 35 6.70029 35L34.2997 35C34.6865 35 35 34.6865 35 34.2997L35 25.15L35 12.15L31.598 9.17327C31.4704 9.06157 31.3065 9 31.1369 9L6.70029 9C6.31353 9 6 9.31353 6 9.70029L6 11.4497C6 11.8365 6.29045 12.15 6.67721 12.15C14.6862 12.15 28.5 12.15 28.5 12.15L30.6997 12.15C31.0865 12.15 31.4 12.4635 31.4 12.8503L31.4 25.15L31.4 31.1397Z">
</path>
<defs>
<clipPath id="clip-path-11_79">
<path d="M4 45L49 45L49 0L4 0L4 45Z" fill="white"/>
</clipPath>
<clipPath id="clip-path-11_84">
<path d="M0 47L45 47L45 2L0 2L0 47Z" fill="white"/>
</clipPath>
</defs>
</svg>
