<svg width="168" height="117" viewBox="0 0 168 117" fill="none" xmlns="http://www.w3.org/2000/svg">
<path d="M82.3536 4.59234C82.353 5.14254 82.244 5.68724 82.0329 6.19533C81.8218 6.70341 81.5127 7.16495 81.1232 7.55357C80.7337 7.9422 80.2715 8.2503 79.7629 8.4603C79.2544 8.67029 78.7095 8.77807 78.1593 8.77747H61.4073C60.2964 8.77747 59.231 8.33617 58.4455 7.55066C57.66 6.76516 57.2187 5.69978 57.2187 4.5889C57.2187 3.47803 57.66 2.41265 58.4455 1.62714C59.231 0.841632 60.2964 0.400338 61.4073 0.400338H78.1593C78.71 0.400037 79.2553 0.508244 79.7642 0.718777C80.273 0.92931 80.7354 1.23804 81.1249 1.62734C81.5145 2.01663 81.8234 2.47885 82.0342 2.9876C82.2451 3.49635 82.3536 4.04165 82.3536 4.59234ZM105.164 4.59234C105.164 6.9062 103.843 8.77976 102.215 8.77976H90.4257C88.7952 8.77976 87.4766 6.90391 87.4766 4.59234C87.4766 2.28078 88.7952 0.395752 90.4257 0.395752H102.215C103.846 0.395752 105.164 2.2716 105.164 4.58546V4.59234ZM130.768 21.5828C130.768 22.2249 130.642 22.8608 130.396 23.4541C130.151 24.0475 129.791 24.5866 129.337 25.0406C128.883 25.4947 128.344 25.8548 127.75 26.1004C127.157 26.346 126.521 26.4722 125.879 26.4719H77.4713C76.1749 26.4719 74.9316 25.957 74.015 25.0403C73.0983 24.1236 72.5833 22.8803 72.5833 21.5839C72.5833 20.2876 73.0983 19.0443 74.015 18.1276C74.9316 17.2109 76.1749 16.6959 77.4713 16.6959H125.879C126.521 16.6956 127.157 16.8218 127.75 17.0673C128.343 17.3127 128.882 17.6726 129.336 18.1265C129.79 18.5803 130.15 19.1191 130.396 19.7122C130.642 20.3052 130.768 20.9409 130.768 21.5828ZM143.803 39.0388C143.803 40.274 143.312 41.4587 142.438 42.3321C141.565 43.2056 140.38 43.6963 139.145 43.6963H66.0602C64.8253 43.6963 63.6409 43.2057 62.7677 42.3325C61.8944 41.4592 61.4039 40.2749 61.4039 39.0399C61.4039 37.805 61.8944 36.6206 62.7677 35.7474C63.6409 34.8741 64.8253 34.3835 66.0602 34.3835H139.145C140.38 34.3835 141.565 34.8739 142.438 35.7468C143.312 36.6196 143.804 37.8037 143.805 39.0388H143.803ZM147.992 55.566C147.992 56.8627 147.477 58.1063 146.56 59.0231C145.643 59.94 144.4 60.4551 143.103 60.4551H129.601C128.304 60.4551 127.06 59.94 126.144 59.0231C125.227 58.1063 124.712 56.8627 124.712 55.566C124.712 54.2693 125.227 53.0258 126.144 52.1089C127.06 51.192 128.304 50.6769 129.601 50.6769H143.103C143.745 50.6766 144.381 50.8028 144.975 51.0484C145.568 51.294 146.107 51.6541 146.561 52.1082C147.015 52.5622 147.375 53.1013 147.621 53.6947C147.866 54.288 147.993 54.9239 147.992 55.566ZM120.99 55.566C120.99 58.2674 117.738 60.4551 113.718 60.4551H20.2555C16.2424 60.4551 12.9883 58.2674 12.9883 55.566C12.9883 52.8646 16.2424 50.6792 20.2555 50.6792H113.72C117.74 50.6792 120.992 52.8669 120.992 55.5683L120.99 55.566Z" fill="#E4EEF2"/>
<path d="M41.3847 65.5738C41.385 66.2466 41.2527 66.913 40.9953 67.5346C40.738 68.1563 40.3606 68.7212 39.8848 69.197C39.409 69.6728 38.8442 70.0501 38.2225 70.3075C37.6008 70.5648 36.9345 70.6971 36.2616 70.6968H29.2788C28.6062 70.6969 27.9403 70.5646 27.3189 70.3073C26.6975 70.05 26.1329 69.6728 25.6573 69.1973C25.1817 68.7218 24.8045 68.1572 24.5471 67.5359C24.2897 66.9146 24.1572 66.2486 24.1572 65.5761C24.1572 64.9035 24.2897 64.2376 24.5471 63.6163C24.8045 62.9949 25.1817 62.4304 25.6573 61.9549C26.1329 61.4794 26.6975 61.1022 27.3189 60.8449C27.9403 60.5876 28.6062 60.4552 29.2788 60.4553H36.2616C36.9341 60.455 37.6 60.5872 38.2214 60.8442C38.8428 61.1013 39.4075 61.4782 39.8832 61.9535C40.3589 62.4288 40.7364 62.9932 40.994 63.6143C41.2516 64.2355 41.3844 64.9013 41.3847 65.5738Z" fill="#E4EEF2"/>
<path d="M91.6634 75.5835C91.6637 76.3173 91.5194 77.044 91.2388 77.722C90.9582 78.4 90.5468 79.0161 90.028 79.5351C89.5093 80.0541 88.8933 80.4657 88.2154 80.7466C87.5375 81.0275 86.8109 81.1721 86.0771 81.1721H6.00481C5.02408 81.1722 4.06058 80.9142 3.2112 80.4239C2.36182 79.9336 1.65649 79.2283 1.16612 78.3789C0.675374 77.5299 0.416992 76.5665 0.416992 75.5858C0.416992 74.6051 0.675374 73.6417 1.16612 72.7927C1.65649 71.9433 2.36182 71.238 3.2112 70.7477C4.06058 70.2574 5.02408 69.9994 6.00481 69.9995H86.0748C86.8084 69.9995 87.5349 70.144 88.2126 70.4247C88.8904 70.7055 89.5062 71.117 90.0249 71.6357C90.5437 72.1544 90.9551 72.7703 91.2359 73.448C91.5166 74.1258 91.6611 74.8522 91.6611 75.5858L91.6634 75.5835ZM163.356 95.3212C163.356 96.7892 162.772 98.197 161.734 99.235C160.696 100.273 159.288 100.856 157.82 100.857H91.1474C89.6984 100.828 88.3188 100.231 87.3044 99.1961C86.2901 98.1609 85.722 96.7694 85.722 95.3201C85.722 93.8708 86.2901 92.4793 87.3044 91.4441C88.3188 90.4089 89.6984 89.8126 91.1474 89.7831H157.818C159.286 89.7837 160.694 90.3671 161.733 91.4051C162.771 92.443 163.355 93.8507 163.356 95.3189V95.3212Z" fill="#E4EEF2"/>
<path d="M107.491 104.863C107.49 105.926 107.067 106.944 106.315 107.694C105.564 108.445 104.545 108.866 103.483 108.865H97.9951C97.4687 108.865 96.9476 108.762 96.4613 108.56C95.975 108.359 95.5332 108.064 95.161 107.692C94.7888 107.32 94.4935 106.878 94.2921 106.391C94.0907 105.905 93.987 105.384 93.987 104.858C93.987 104.331 94.0907 103.81 94.2921 103.324C94.4935 102.838 94.7888 102.396 95.161 102.024C95.5332 101.652 95.975 101.357 96.4613 101.155C96.9476 100.954 97.4687 100.85 97.9951 100.85H103.483C104.545 100.851 105.564 101.273 106.316 102.024C107.067 102.775 107.49 103.794 107.491 104.857V104.863ZM152.186 112.862C152.186 113.387 152.083 113.906 151.882 114.391C151.681 114.876 151.386 115.316 151.015 115.687C150.644 116.058 150.203 116.352 149.718 116.552C149.233 116.752 148.714 116.855 148.189 116.855H73.7718C72.7129 116.855 71.6974 116.434 70.9487 115.685C70.1999 114.937 69.7793 113.921 69.7793 112.862C69.7793 111.803 70.1999 110.788 70.9487 110.039C71.6974 109.29 72.7129 108.87 73.7718 108.87H148.189C148.714 108.869 149.233 108.972 149.718 109.173C150.203 109.373 150.643 109.667 151.014 110.038C151.386 110.409 151.68 110.849 151.881 111.334C152.082 111.818 152.186 112.338 152.186 112.862ZM167.551 112.862C167.551 113.921 167.13 114.936 166.382 115.685C165.634 116.433 164.619 116.854 163.56 116.855H160.373C159.314 116.855 158.299 116.434 157.55 115.685C156.801 114.937 156.38 113.921 156.38 112.862C156.38 111.803 156.801 110.788 157.55 110.039C158.299 109.29 159.314 108.87 160.373 108.87H163.56C164.619 108.87 165.634 109.291 166.382 110.04C167.13 110.789 167.551 111.804 167.551 112.862Z" fill="#E4EEF2"/>
<path d="M118.575 6.83066H48.6549C48.6549 6.83066 43.2773 6.15875 42.938 13.2173C42.5986 20.2758 42.938 94.3032 42.938 103.93C42.8256 111.791 52.5695 113.504 56.0483 109.028C60.7563 103.316 57.7292 96.5895 56.7225 96.2501C55.7158 95.9107 122.276 96.2501 122.276 96.2501V15.9072C122.276 15.9072 123.194 6.81232 118.575 6.83066Z" fill="white"/>
<path d="M50.5715 112.328C48.1613 112.328 45.8772 111.41 44.3064 109.817C42.8112 108.299 42.0361 106.258 42.0705 103.918C42.0705 101.765 42.0545 96.3509 42.0315 89.1525C41.9536 64.521 41.8022 18.6681 42.0705 13.1758C42.3251 7.8418 45.4484 5.94302 48.2851 5.94302C48.4453 5.94164 48.6053 5.95007 48.7644 5.96824H118.577C119.11 5.95771 119.64 6.06367 120.128 6.27873C120.616 6.49379 121.052 6.81278 121.404 7.21346C123.743 9.79792 123.166 15.7442 123.14 15.9896V97.1214H122.267C122.267 97.1214 92.6841 96.97 73.2629 96.97C64.4592 96.97 60.3085 97.0021 58.3959 97.0365C58.6433 97.5541 58.8481 98.0909 59.0082 98.6418C59.5499 100.512 59.6241 102.487 59.2243 104.392C58.8244 106.298 57.9628 108.076 56.715 109.571C55.3643 111.312 53.1169 112.323 50.5669 112.323L50.5715 112.328ZM48.2782 7.68127C47.0124 7.68127 44.0427 8.22706 43.7996 13.2584C43.545 18.7071 43.6895 64.5302 43.7606 89.1433C43.7835 96.3348 43.7996 101.756 43.7996 103.928C43.7721 105.806 44.3729 107.413 45.5356 108.592C46.2018 109.238 46.9889 109.747 47.8518 110.089C48.7147 110.431 49.6365 110.599 50.5646 110.585C52.5757 110.585 54.3209 109.824 55.3551 108.491C56.245 107.442 56.9101 106.222 57.3093 104.906C57.7085 103.589 57.8332 102.205 57.6759 100.839C57.4465 98.7106 56.6233 97.2498 56.3412 97.0296C56.1672 96.9558 56.0238 96.8243 55.9353 96.6573C55.8468 96.4903 55.8184 96.2978 55.855 96.1124C55.9101 95.7707 55.9422 95.5643 57.0016 95.4382C58.6459 95.2409 62.7622 95.2409 73.2675 95.2409C90.7211 95.2409 116.38 95.3625 121.404 95.3854V15.907C121.563 14.3156 121.634 10.0456 120.111 8.37153C119.923 8.1529 119.689 7.97908 119.425 7.86282C119.161 7.74656 118.874 7.6908 118.586 7.69962H48.6543C48.5328 7.69962 48.425 7.68357 48.2851 7.68357L48.2782 7.68127Z" fill="#000333"/>
<path d="M51.9893 22.1309H113.496V39.0296H51.9893V22.1309ZM51.9893 44.8337H110.207V48.4754H51.9893V44.8337ZM51.9893 53.8323H82.7459V57.4739H51.9893V53.8323ZM51.9893 64.3444H102.603V67.9861H51.9893V64.3444ZM51.9893 74.7946H89.2403V78.4363H51.9893V74.7946ZM142.656 88.7557C144.167 90.2647 144.594 92.324 143.61 93.3559C142.626 94.3879 140.606 93.998 139.099 92.4868L124.606 77.9868C123.1 76.4779 122.671 74.4162 123.657 73.3866C124.643 72.3569 126.659 72.7445 128.163 74.2557L142.656 88.7557Z" fill="#B4CEEF"/>
<path d="M142.14 94.358C141.03 94.358 139.778 93.771 138.796 92.7849L124.303 78.2849C122.601 76.5833 122.182 74.2947 123.347 73.077C124.454 71.9051 126.848 72.3133 128.474 73.9415L142.965 88.4415C144.667 90.1408 145.091 92.4271 143.926 93.6471C143.694 93.8837 143.415 94.0693 143.107 94.1921C142.799 94.3149 142.469 94.3722 142.137 94.3603L142.14 94.358ZM125.133 73.2329C124.922 73.2249 124.712 73.2597 124.515 73.3354C124.318 73.4111 124.138 73.526 123.987 73.6732C123.175 74.5194 123.608 76.3494 124.927 77.6703L139.42 92.1703C140.243 92.9936 141.254 93.4866 142.149 93.4866C142.358 93.4923 142.567 93.4558 142.763 93.3794C142.958 93.303 143.136 93.1882 143.286 93.0417C144.096 92.1932 143.66 90.3655 142.341 89.0492L127.851 74.5469C127.027 73.7214 126.016 73.2283 125.119 73.2283L125.133 73.2329Z" fill="#000333"/>
<path d="M123.37 73.7789C122.26 74.1114 123.782 73.1322 123.234 74.4943C123.035 75.6662 123.512 76.6431 124.397 77.5397L138.156 91.5398C139.573 92.9869 142.406 94.4545 143.1 93.5831C143.171 93.4914 143.252 93.4111 143.33 93.3217L123.37 73.7789Z" fill="#000333"/>
<path d="M125.78 48.2254C122.927 45.3733 119.293 43.4311 115.337 42.6444C111.38 41.8576 107.28 42.2617 103.553 43.8055C99.8262 45.3494 96.641 47.9635 94.4 51.3176C92.159 54.6716 90.9629 58.6148 90.9629 62.6486C90.9629 66.6824 92.159 70.6256 94.4 73.9796C96.641 77.3336 99.8262 79.9478 103.553 81.4916C107.28 83.0354 111.38 83.4395 115.337 82.6528C119.293 81.8661 122.927 79.9239 125.78 77.0718C129.602 73.2449 131.749 68.0573 131.749 62.6486C131.749 57.2398 129.602 52.0522 125.78 48.2254Z" fill="white"/>
<path d="M111.362 83.9011C106.445 83.9006 101.681 82.1951 97.88 79.0753C94.0794 75.9555 91.4781 71.6144 90.5193 66.7917C89.5605 61.969 90.3036 56.9631 92.622 52.6268C94.9403 48.2906 98.6905 44.8923 103.233 43.0111C107.776 41.1298 112.831 40.882 117.536 42.3098C122.242 43.7376 126.306 46.7527 129.038 50.8413C131.769 54.93 132.998 59.8393 132.516 64.7326C132.034 69.626 129.869 74.2007 126.392 77.6773C124.422 79.6553 122.078 81.2231 119.498 82.2902C116.918 83.3573 114.152 83.9025 111.36 83.8943L111.362 83.9011ZM111.362 43.1346C106.847 43.1381 102.473 44.7071 98.9844 47.5743C95.4961 50.4415 93.1099 54.4294 92.2323 58.8587C91.3547 63.288 92.0399 67.8845 94.1714 71.8652C96.3028 75.8458 99.7485 78.9643 103.921 80.6893C108.094 82.4144 112.736 82.6392 117.056 81.3254C121.376 80.0117 125.107 77.2408 127.613 73.4847C130.119 69.7286 131.246 65.2198 130.8 60.7265C130.355 56.2331 128.365 52.0332 125.17 48.8424C123.361 47.0264 121.211 45.587 118.842 44.6073C116.474 43.6276 113.935 43.127 111.372 43.1346H111.362Z" fill="#000333"/>
<path d="M122.558 58.013H120.061V57.1439H122.558V58.013ZM117.453 58.013H114.851V57.1439H117.458L117.453 58.013ZM112.241 58.013H109.633V57.1439H112.241V58.013ZM107.026 58.013H104.421V57.1439H107.026V58.013ZM101.816 58.013H99.2085V57.1439H101.816V58.013ZM116.119 50.904H113.511V50.0349H116.119V50.904ZM110.906 50.904H108.299V50.0349H110.906V50.904ZM105.694 50.904H103.084V50.0349H105.691L105.694 50.904ZM124.971 67.312H122.533V66.4406H124.971V67.312ZM119.925 67.312H117.32V66.4406H119.925V67.312ZM114.713 67.312H112.099V66.4406H114.713V67.312ZM109.5 67.312H106.893V66.4406H109.5V67.312ZM104.286 67.312H101.681V66.4406H104.286V67.312ZM99.0755 67.312H96.4658V66.4406H99.0732L99.0755 67.312ZM117.178 76.0263H114.568V75.1548H117.176L117.178 76.0263ZM111.963 76.0263H109.347V75.1548H111.961L111.963 76.0263ZM106.753 76.0263H104.141V75.1548H106.749L106.753 76.0263Z" fill="#999999"/>
<path d="M55.7519 95.6537C55.7519 95.6537 62.1476 107.693 50.2344 111.461C63.5809 111.342 127.023 111.793 127.023 111.793C127.023 111.793 132.068 108.652 133.444 105.237C134.82 101.822 132.435 97.0067 130.417 95.6056C126.009 95.1768 55.7404 95.656 55.7404 95.656L55.7519 95.6537Z" fill="#EEEEEE"/>
<path d="M127.147 112.227H127.021C126.528 112.227 77.4598 111.876 56.8873 111.876C54.1354 111.876 51.8812 111.876 50.3058 111.894H50.2828L49.5765 111.816L49.5215 111.397L49.5444 110.984H49.9985L50.1911 111.005C53.3466 109.989 55.4357 108.273 56.4034 105.914C58.2564 101.389 55.3944 95.8992 55.3669 95.8442L55.0298 95.2113H55.7453C56.0824 95.2113 89.5817 94.9819 111.521 94.9819C122.863 94.9819 129.241 95.0416 130.47 95.1608L130.582 95.1723L130.676 95.2365C132.917 96.7913 135.292 101.852 133.857 105.389C132.421 108.925 127.466 112.018 127.252 112.151L127.147 112.227ZM56.8873 111.007C76.9438 111.007 124.079 111.337 126.899 111.358C127.619 110.899 131.841 108.051 133.054 105.072C134.352 101.862 132.061 97.3646 130.275 96.0253C128.826 95.9153 122.519 95.8602 111.528 95.8602C91.3337 95.8602 61.343 96.0529 56.4447 96.0896C57.1785 97.7338 58.8549 102.249 57.2175 106.258C56.3828 108.301 54.8142 109.895 52.5394 111.018H56.8965L56.8873 111.007Z" fill="#000333"/>
</svg>
